<?xml version="1.0" standalone="no"?>
<!DOCTYPE svg PUBLIC "-//W3C//DTD SVG 20010904//EN"
 "http://www.w3.org/TR/2001/REC-SVG-20010904/DTD/svg10.dtd">
<svg version="1.0" xmlns="http://www.w3.org/2000/svg"
 width="281.000000pt" height="136.000000pt" viewBox="0 0 281.000000 136.000000"
 preserveAspectRatio="xMidYMid meet">

<g transform="translate(0.000000,136.000000) scale(0.100000,-0.100000)"
fill="#000000" stroke="none">
<path d="M1572 1075 c0 -16 2 -22 5 -12 2 9 2 23 0 30 -3 6 -5 -1 -5 -18z"/>
<path d="M978 873 c7 -3 16 -2 19 1 4 3 -2 6 -13 5 -11 0 -14 -3 -6 -6z"/>
<path d="M908 859 c-19 -11 -25 -49 -8 -49 6 0 10 6 10 14 0 8 7 22 16 30 17
18 8 21 -18 5z"/>
<path d="M1018 836 c2 -18 -1 -43 -7 -55 -16 -28 3 -27 23 1 19 27 21 59 4 76
-19 19 -24 14 -20 -22z"/>
<path d="M1317 853 c-12 -11 -8 -23 8 -23 8 0 15 7 15 15 0 16 -12 20 -23 8z"/>
<path d="M1656 838 c-8 -13 -20 -43 -25 -68 -22 -95 -7 -124 48 -95 24 12 30
12 43 -1 11 -11 21 -12 41 -5 31 12 36 22 8 14 -28 -7 -33 10 -21 80 14 77 25
99 40 77 6 -9 10 -10 10 -3 0 16 -15 24 -33 17 -17 -6 -32 -40 -46 -104 -10
-44 -32 -70 -59 -70 -11 0 -12 12 -8 60 7 69 19 106 38 113 9 4 7 6 -4 6 -10
1 -24 -9 -32 -21z"/>
<path d="M955 838 c-9 -26 -35 -144 -35 -162 0 -15 3 -16 15 -6 8 7 15 22 15
34 0 25 10 41 30 49 12 4 11 6 -3 6 -13 1 -17 6 -13 19 16 53 17 72 7 72 -6 0
-14 -6 -16 -12z"/>
<path d="M1090 785 c-7 -8 -18 -32 -25 -52 -12 -34 -11 -39 8 -55 22 -20 27
-21 54 -11 16 6 15 8 -7 13 -19 4 -26 13 -28 37 -4 38 13 73 33 73 16 0 20
-29 8 -46 -5 -5 0 -1 9 9 9 10 14 25 11 32 -7 19 -47 19 -63 0z"/>
<path d="M1190 790 c-8 -5 -10 -10 -3 -10 8 0 8 -15 -2 -57 -7 -32 -12 -59
-10 -61 10 -10 24 12 34 51 12 50 37 79 51 58 6 -10 9 -10 15 -1 4 6 2 17 -4
23 -7 7 -16 5 -31 -8 -18 -16 -20 -16 -20 -2 0 19 -8 21 -30 7z"/>
<path d="M1305 792 c-14 -10 -19 -119 -6 -127 6 -3 19 -1 30 4 14 8 20 8 23
-1 8 -22 28 3 34 43 7 39 26 69 45 69 5 0 8 -25 7 -56 -3 -61 6 -73 37 -49 15
11 16 13 4 9 -25 -8 -29 7 -17 55 13 51 2 69 -32 51 -17 -9 -24 -9 -30 -1 -3
7 -14 9 -23 5 -9 -3 -14 -10 -11 -16 3 -5 3 -29 0 -52 -6 -37 -10 -43 -29 -42
-23 1 -24 6 -13 74 7 40 2 50 -19 34z"/>
<path d="M1521 774 c-43 -55 -15 -127 42 -108 22 7 22 8 -3 14 -19 4 -26 13
-28 37 -4 38 13 73 33 73 18 0 20 -31 3 -50 -11 -12 -10 -12 5 -1 9 7 17 24
17 37 0 34 -42 32 -69 -2z"/>
<path d="M1836 781 c-19 -21 -34 -69 -29 -93 6 -23 34 -31 51 -14 13 12 12 14
-4 13 -25 -3 -30 33 -9 72 9 19 23 31 35 31 22 0 23 -8 11 -62 -6 -27 -5 -42
5 -55 12 -17 14 -17 31 0 17 17 17 18 -1 11 -17 -7 -18 -4 -12 32 4 21 10 48
12 60 5 18 0 21 -34 22 -27 1 -44 -4 -56 -17z"/>
<path d="M1130 606 c0 -8 -6 -17 -12 -19 -8 -3 -6 -6 5 -6 11 -1 17 6 17 19 0
11 -2 20 -5 20 -3 0 -5 -6 -5 -14z"/>
<path d="M1150 599 c0 -17 3 -20 9 -11 4 8 12 13 17 12 5 -1 9 3 11 10 1 7 0
7 -4 0 -3 -8 -9 -7 -19 1 -11 9 -14 7 -14 -12z"/>
<path d="M1290 606 c0 -8 -10 -17 -22 -19 -20 -4 -19 -4 5 -6 21 -1 27 4 27
19 0 11 -2 20 -5 20 -3 0 -5 -6 -5 -14z"/>
<path d="M1332 600 c0 -14 2 -19 5 -12 2 6 2 18 0 25 -3 6 -5 1 -5 -13z"/>
<path d="M1350 599 c0 -11 4 -18 10 -14 5 3 7 12 3 20 -7 21 -13 19 -13 -6z"/>
<path d="M1376 612 c-2 -4 -1 -14 5 -22 7 -12 9 -10 9 8 0 23 -5 28 -14 14z"/>
<path d="M1402 600 c0 -14 2 -19 5 -12 2 6 2 18 0 25 -3 6 -5 1 -5 -13z"/>
<path d="M1422 600 c0 -14 2 -19 5 -12 2 6 2 18 0 25 -3 6 -5 1 -5 -13z"/>
<path d="M1472 600 c0 -14 2 -19 5 -12 2 6 2 18 0 25 -3 6 -5 1 -5 -13z"/>
<path d="M1494 608 c-7 -11 4 -28 19 -28 7 0 6 4 -3 10 -13 8 -12 10 3 10 9 0
17 4 17 8 0 5 -7 9 -15 9 -9 0 -18 -4 -21 -9z"/>
<path d="M1540 602 c0 -10 7 -19 14 -19 11 0 13 5 5 19 -5 10 -12 18 -14 18
-3 0 -5 -8 -5 -18z"/>
<path d="M1622 600 c0 -14 2 -19 5 -12 2 6 2 18 0 25 -3 6 -5 1 -5 -13z"/>
<path d="M1659 603 c-8 -9 -9 -14 -2 -10 6 4 14 1 16 -5 3 -7 6 -3 6 10 1 26
-2 27 -20 5z"/>
<path d="M1707 600 c3 -11 7 -20 9 -20 2 0 4 9 4 20 0 11 -4 20 -9 20 -5 0 -7
-9 -4 -20z"/>
<path d="M1730 601 c0 -14 6 -21 18 -20 10 0 12 3 4 6 -6 2 -10 9 -7 13 3 5 1
11 -5 15 -5 3 -10 -3 -10 -14z"/>
<path d="M1060 590 c0 -4 9 -10 20 -13 11 -3 20 -2 20 3 0 4 -9 10 -20 13 -11
3 -20 2 -20 -3z"/>
<path d="M1207 589 c7 -7 15 -10 18 -7 3 3 -2 9 -12 12 -14 6 -15 5 -6 -5z"/>
</g>
</svg>
